<svg version="1.1" viewBox="0 0 1365.3 1365.3" xmlns="http://www.w3.org/2000/svg">
 <g stroke-width="1.3333">
  <path d="m597.33 661.33v-21.333h-85.333v-42.667h-42.667v-85.333h42.667v-42.667h85.333v-42.667h256v42.667h85.333v42.667h42.667v85.333h-42.667v42.667h-85.333v42.667h-256zm256-42.667v-21.333h85.333v-85.333h-85.333v-42.667h-256v42.667h-85.333v85.333h85.333v42.667h256z" fill="#d7cbaf"/>
  <path d="m597.33 704v-21.333h-85.333v-42.667h-42.667v-42.667h42.667v42.667h85.333v42.667h256v-42.667h85.333v-42.667h42.667v42.667h-42.667v42.667h-85.333v42.667h-256zm-85.333-170.67v-21.333h85.333v-42.667h256v42.667h85.333v42.667h-85.333v-42.667h-256v42.667h-85.333z" fill="#b7ae99"/>
  <path d="m597.33 746.67v-21.333h-128v-42.667h128v42.667h256v-42.667h85.333v-42.667h42.667v42.667h-42.667v42.667h-85.333v42.667h-256zm-256-85.333v-21.333h42.667v-42.667h85.333v42.667h-85.333v42.667h-42.667z" fill="#978d75"/>
  <path d="m597.33 789.33v-21.333h-85.333v-42.667h85.333v42.667h256v-42.667h85.333v-42.667h42.667v42.667h-42.667v42.667h-85.333v42.667h-256z" fill="#8a816d"/>
  <path d="m597.33 832v-21.333h-85.333v-42.667h85.333v42.667h256v-42.667h85.333v-42.667h42.667v42.667h-42.667v42.667h-85.333v42.667h-256zm-298.67-128v-21.333h42.667v42.667h-42.667zm85.333-42.667v-21.333h128v42.667h-128z" fill="#847b64"/>
  <path d="m597.33 874.67v-21.333h-85.333v-42.667h85.333v42.667h256v-42.667h85.333v-42.667h42.667v42.667h-42.667v42.667h-85.333v42.667h-256zm-298.67-106.67v-42.667h42.667v-42.667h85.333v42.667h-85.333v85.333h-42.667z" fill="#756d58"/>
  <path d="m597.33 917.33v-21.333h-42.667v-42.667h42.667v42.667h256v-42.667h85.333v-42.667h42.667v42.667h-42.667v42.667h-85.333v42.667h-256zm-256-170.67v-21.333h42.667v42.667h-42.667z" fill="#6c6451"/>
  <path d="m597.33 960v-21.333h-42.667v-42.667h-42.667v42.667h-42.667v-42.667h42.667v-42.667h-42.667v-128h42.667v128h42.667v42.667h42.667v42.667h256v-42.667h85.333v-42.667h42.667v42.667h-42.667v42.667h-85.333v42.667h-256zm-298.67-128v-21.333h42.667v-42.667h42.667v42.667h-42.667v42.667h-42.667z" fill="#645d4a"/>
  <path d="m597.33 1002.7v-21.333h-42.667v-42.667h-42.667v-42.667h-128v-42.667h-42.667v-42.667h85.333v42.667h85.333v42.667h42.667v42.667h42.667v42.667h256v-42.667h85.333v-42.667h42.667v42.667h-42.667v42.667h-85.333v42.667h-256z" fill="#5f5845"/>
  <path d="m597.33 1045.3v-21.333h-42.667v-42.667h-85.333v-42.667h85.333v42.667h42.667v42.667h256v-42.667h85.333v-42.667h42.667v42.667h-42.667v42.667h-85.333v42.667h-256z" fill="#595241"/>
  <path d="m597.33 1088v-21.333h-42.667v-42.667h-42.667v-42.667h42.667v42.667h42.667v42.667h256v-42.667h42.667v42.667h-42.667v42.667h-256zm-213.33-170.67v-21.333h-42.667v-42.667h42.667v42.667h85.333v42.667h-85.333z" fill="#534d3c"/>
  <path d="m597.33 1130.7v-21.333h-42.667v-42.667h-42.667v-42.667h-42.667v-42.667h42.667v42.667h42.667v42.667h42.667v42.667h256v-42.667h42.667v-42.667h42.667v-42.667h42.667v42.667h-42.667v42.667h-42.667v42.667h-42.667v42.667h-256z" fill="#4c4637"/>
  <path d="m597.33 618.67v-21.333h-85.333v-42.667h85.333v-42.667h256v42.667h85.333v42.667h-85.333v42.667h-256z" fill="#2a1f06"/>
  <path d="m469.33 362.67v-21.333h42.667v42.667h-42.667zm170.67 0v-21.333h-42.667v-128h42.667v-42.667h42.667v-128h42.667v128h-42.667v42.667h-42.667v128h42.667v42.667h-42.667zm170.67 0v-21.333h-42.667v-85.333h42.667v-128h-42.667v-85.333h42.667v85.333h42.667v128h-42.667v85.333h42.667v42.667h-42.667zm85.333-85.333v-21.333h42.667v42.667h-42.667zm-341.33-170.67v-21.333h42.667v42.667h-42.667zm384-42.667v-21.333h42.667v42.667h-42.667z" fill="#f0f0f0"/>
 </g>
</svg>
